<svg xmlns="http://www.w3.org/2000/svg" viewBox="0 0 64 64">
  <rect width="64" height="64" rx="16" fill="#111827"/>
  <path d="M32 14c-10.5 0-19 8.5-19 19 0 8.4 5.4 15.5 13 18 1 .2 1.3-.4 1.3-.9v-3.3c-5.3 1.1-6.4-2.3-6.4-2.3-.9-2.2-2.1-2.8-2.1-2.8-1.7-1.2.1-1.2.1-1.2 1.9.1 2.9 1.9 2.9 1.9 1.7 2.9 4.4 2.1 5.5 1.6.2-1.2.7-2.1 1.2-2.6-4.2-.5-8.6-2.1-8.6-9.4 0-2.1.7-3.8 1.9-5.1-.2-.5-.8-2.4.2-5 0 0 1.6-.5 5.2 1.9a18 18 0 0 1 9.4 0c3.6-2.4 5.2-1.9 5.2-1.9.9 2.6.4 4.5.2 5 1.2 1.3 1.9 3 1.9 5.1 0 7.3-4.4 8.9-8.6 9.4.7.6 1.3 1.8 1.3 3.6v5.3c0 .5.3 1.1 1.3.9A19.1 19.1 0 0 0 51 33c0-10.5-8.5-19-19-19Z" fill="#f8fafc"/>
</svg>
